<svg xmlns="http://www.w3.org/2000/svg"
 width="64" height="64" viewBox="235.00 120.00 735.00 738.00"
 preserveAspectRatio="xMidYMid meet">

<g transform="translate(0.000000,982.000000) scale(0.100000,-0.100000)"
fill="#29B5E8" stroke="none">
<path d="M2910 8570 c-128 -23 -229 -78 -330 -179 -123 -124 -180 -263 -181
-438 0 -176 56 -309 182 -435 63 -63 95 -85 168 -120 l91 -43 0 -918 0 -917
-27 -11 c-156 -57 -279 -170 -352 -324 -49 -102 -62 -156 -62 -265 0 -244 134
-456 356 -561 33 -16 66 -29 73 -29 10 0 12 -185 10 -911 l-3 -911 -45 -17
c-171 -65 -327 -244 -375 -429 -20 -80 -20 -228 0 -307 56 -218 234 -391 460
-450 77 -20 220 -19 299 1 193 50 368 211 434 402 l11 32 903 0 904 0 13 -38
c60 -171 221 -325 401 -384 81 -26 241 -35 319 -18 31 6 94 30 141 52 70 33
100 55 165 122 75 77 112 133 149 228 l15 38 905 0 c765 0 906 -2 906 -14 0
-7 18 -51 41 -96 123 -246 416 -386 691 -329 165 34 338 169 416 326 128 259
79 545 -128 736 -61 56 -159 116 -232 140 -17 6 -18 58 -18 909 l0 903 91 43
c73 35 106 58 168 120 256 254 252 656 -10 895 -62 57 -147 109 -221 136 l-28
11 0 920 c0 789 2 920 14 920 35 0 182 87 236 140 105 104 157 200 186 341 72
357 -186 697 -558 735 -116 12 -269 -24 -374 -87 -105 -64 -216 -197 -259
-311 l-18 -48 -901 0 -901 0 -43 91 c-59 125 -160 228 -282 286 -110 53 -174
68 -290 67 -237 -2 -440 -132 -546 -349 l-46 -95 -904 0 c-853 0 -905 1 -910
18 -3 9 -22 50 -42 91 -43 87 -147 198 -233 249 -129 76 -289 106 -429 82z
m225 -366 c50 -23 105 -79 130 -129 27 -57 32 -164 10 -222 -64 -167 -289
-226 -428 -112 -102 84 -130 240 -62 355 67 115 231 165 350 108z m2981 11
c128 -38 208 -176 182 -314 -46 -250 -393 -301 -508 -75 -18 36 -26 69 -28
124 -3 67 -1 81 25 129 34 65 84 107 155 132 65 22 109 24 174 4z m3017 -5
c144 -54 217 -229 153 -366 -81 -175 -312 -219 -444 -84 -205 211 16 553 291
450z m-3697 -447 c3 -10 22 -52 42 -93 53 -112 157 -213 279 -271 l92 -44 3
-536 3 -535 27 -41 c36 -54 103 -87 164 -80 53 6 83 24 121 74 l28 36 5 539 5
539 57 23 c135 55 261 171 321 298 19 40 38 81 41 91 5 16 57 17 911 17 717 0
905 -3 905 -12 0 -7 12 -38 26 -67 l25 -55 -670 -670 c-504 -505 -671 -678
-676 -701 -4 -16 -9 -36 -11 -44 -15 -46 45 -143 103 -167 39 -17 116 -18 146
-3 12 6 322 310 688 676 l667 666 61 -24 61 -24 0 -915 0 -915 -91 -43 c-75
-35 -106 -58 -169 -121 -65 -64 -86 -95 -125 -175 l-46 -96 -476 0 c-460 0
-476 -1 -512 -20 -94 -53 -118 -177 -49 -256 58 -66 38 -64 562 -64 l474 0 46
-95 c72 -148 188 -256 340 -316 l41 -17 3 -903 2 -904 -62 -28 -63 -27 -635
634 c-349 349 -648 641 -665 649 -31 16 -58 20 -112 18 -46 -1 -117 -71 -132
-129 -26 -96 -61 -55 650 -767 l649 -651 -27 -62 -28 -62 -902 0 -901 0 -41
83 c-66 137 -158 230 -286 292 -38 18 -78 36 -87 39 -17 5 -18 37 -18 493 0
548 4 519 -76 579 -32 25 -47 29 -99 29 -51 0 -67 -4 -97 -27 -74 -57 -73 -46
-76 -584 l-3 -481 -72 -32 c-90 -40 -168 -100 -230 -177 -42 -52 -93 -143
-111 -196 -5 -17 -57 -18 -912 -18 -876 0 -906 1 -911 19 -2 10 -15 40 -28 67
l-23 49 613 615 c554 555 615 619 625 659 34 128 -74 241 -207 216 -34 -6
-110 -79 -658 -626 -341 -340 -627 -619 -635 -618 -8 0 -35 10 -60 22 l-45 22
-3 902 -2 901 37 12 c148 47 304 198 368 356 l24 59 498 5 498 5 33 24 c39 30
72 95 72 141 0 54 -36 117 -84 145 l-43 25 -486 0 -485 0 -13 38 c-48 149
-196 303 -355 367 l-59 24 0 916 0 917 55 23 55 22 655 -653 c711 -708 673
-676 768 -660 95 15 161 123 132 219 -10 36 -101 132 -656 687 l-645 646 24
54 c13 30 27 63 30 73 6 16 59 17 912 17 854 0 906 -1 911 -17z m-2281 -2603
c110 -68 160 -199 126 -327 -16 -57 -88 -135 -152 -162 -66 -29 -161 -30 -221
-3 -168 76 -215 312 -87 440 86 87 239 110 334 52z m6011 2 c78 -40 133 -127
141 -222 19 -209 -203 -358 -393 -265 -64 31 -107 81 -135 155 -62 164 50 339
231 362 41 5 115 -9 156 -30z m-6031 -3002 c118 -52 183 -200 146 -336 -14
-51 -80 -128 -134 -156 -52 -26 -152 -35 -212 -18 -62 17 -136 85 -164 151
-29 65 -30 161 -3 221 59 135 229 199 367 138z m3002 4 c94 -38 163 -150 163
-262 -1 -178 -179 -302 -360 -252 -120 33 -208 188 -180 316 38 168 218 263
377 198z m2948 15 c126 -23 214 -122 223 -250 11 -157 -99 -278 -261 -287 -85
-5 -140 14 -197 70 -160 154 -91 412 123 464 28 7 52 13 53 13 0 1 27 -4 59
-10z"/>
<path d="M5125 5927 c-60 -29 -107 -75 -138 -136 l-22 -46 0 -865 0 -865 31
-55 c22 -38 48 -67 88 -95 l58 -40 871 -3 c791 -2 876 -1 916 14 58 22 107 67
139 128 l27 51 3 840 c2 585 0 855 -8 890 -15 68 -65 134 -131 170 l-54 30
-865 3 -865 2 -50 -23z m1443 -1044 l2 -533 -535 0 -535 0 0 535 0 535 533 -2
532 -3 3 -532z"/>
</g>
</svg>